<svg width="56" height="56" viewBox="0 0 56 56" fill="none" xmlns="http://www.w3.org/2000/svg">
<path d="M52.1121 48.136C53.8659 45.785 55.0694 43.0702 55.6338 40.1919C56.1983 37.3137 56.1092 34.3454 55.3732 31.5061C54.6373 28.6668 53.2732 26.0291 51.3816 23.7875C49.4901 21.5459 47.1193 19.7577 44.4444 18.5548C43.8617 15.2024 42.5226 12.0269 40.5289 9.26959C38.5351 6.51228 35.9391 4.24572 32.9381 2.64213C29.9372 1.03854 26.6102 0.140115 23.21 0.0151137C19.8097 -0.109887 16.4258 0.541828 13.3152 1.92074C10.2046 3.29965 7.44917 5.36948 5.25834 7.97295C3.06752 10.5764 1.49891 13.645 0.671698 16.9456C-0.155512 20.2462 -0.219555 23.692 0.484434 27.021C1.18842 30.3501 2.64192 33.4749 4.73449 36.158L0.844658 40.02C0.456353 40.4136 0.19331 40.9133 0.088721 41.4562C-0.0158683 41.9991 0.0426826 42.5608 0.256986 43.0705C0.466925 43.5816 0.82344 44.0191 1.2816 44.3279C1.73976 44.6366 2.27907 44.8029 2.83155 44.8056H18.7547C20.3404 48.1488 22.8405 50.9746 25.9656 52.9557C29.0906 54.9368 32.7128 55.9923 36.4128 56H53.2035C53.756 55.9972 54.2953 55.831 54.7534 55.5222C55.2116 55.2134 55.5681 54.7759 55.7781 54.2649C55.9924 53.7552 56.0509 53.1935 55.9463 52.6506C55.8417 52.1077 55.5787 51.608 55.1904 51.2144L52.1121 48.136ZM16.8238 36.4099C16.8276 37.347 16.9024 38.2826 17.0476 39.2085H9.57579L10.5552 38.2569C10.8175 37.9968 11.0257 37.6872 11.1678 37.3462C11.3099 37.0052 11.383 36.6394 11.383 36.2699C11.383 35.9005 11.3099 35.5347 11.1678 35.1937C11.0257 34.8526 10.8175 34.5431 10.5552 34.2829C8.98689 32.7317 7.74352 30.8833 6.89784 28.8459C6.05216 26.8085 5.62114 24.6229 5.62999 22.4169C5.62999 17.9635 7.399 13.6925 10.5479 10.5435C13.6967 7.39445 17.9675 5.62535 22.4206 5.62535C25.8954 5.60446 29.2894 6.6731 32.1254 8.68103C34.9615 10.689 37.097 13.5352 38.2318 16.8197H36.4128C31.2175 16.8197 26.2349 18.8837 22.5613 22.5575C18.8876 26.2314 16.8238 31.2142 16.8238 36.4099ZM46.3193 50.4028L46.4592 50.5427H36.4128C33.176 50.537 30.0413 49.4091 27.5427 47.3512C25.0441 45.2934 23.3362 42.4329 22.71 39.257C22.0838 36.0811 22.5779 32.7863 24.1083 29.934C25.6387 27.0816 28.1106 24.8481 31.103 23.6139C34.0953 22.3797 37.423 22.2211 40.5191 23.1653C43.6152 24.1095 46.2882 26.098 48.0827 28.792C49.8773 31.4859 50.6824 34.7188 50.3608 37.9398C50.0393 41.1609 48.611 44.1708 46.3193 46.4568C45.7921 46.9735 45.4903 47.6776 45.4798 48.4158C45.4813 48.7861 45.5563 49.1524 45.7004 49.4935C45.8445 49.8345 46.0549 50.1436 46.3193 50.4028Z" fill="black"/>
</svg>
