<svg width="43" height="43" viewBox="0 0 43 43" fill="none" xmlns="http://www.w3.org/2000/svg">
<rect width="43" height="43" rx="10" fill="#0C4CE6"/>
<path d="M21.5 12C19.3058 12.0001 17.1502 12.5664 15.25 13.642C13.3497 14.7177 11.7717 16.2648 10.6746 18.1278C9.57755 19.9908 8.99999 22.1042 9 24.2554C9.00001 26.4067 9.57761 28.52 10.6747 30.383C10.8405 30.6658 11.114 30.8724 11.4352 30.9575C11.7564 31.0425 12.0988 30.999 12.3873 30.8365C12.6757 30.6739 12.8865 30.4057 12.9732 30.0909C13.0599 29.776 13.0155 29.4403 12.8498 29.1575C11.9641 27.6698 11.4981 25.9779 11.4997 24.2553C11.5003 22.7518 11.8536 21.2686 12.5323 19.9203C13.211 18.5721 14.1968 17.3949 15.4137 16.4798C16.6305 15.5648 18.0457 14.9363 19.5498 14.6431C21.0539 14.3499 22.6066 14.3998 24.088 14.7889C25.5693 15.178 26.9395 15.8959 28.0926 16.887C29.2457 17.8782 30.1509 19.1161 30.7381 20.5051C31.3253 21.894 31.5788 23.3967 31.4791 24.897C31.3793 26.3973 30.9289 27.8551 30.1627 29.1575C30.0801 29.2973 30.0265 29.4519 30.005 29.6121C29.9835 29.7724 29.9946 29.9353 30.0376 30.0913C30.0806 30.2474 30.1546 30.3936 30.2555 30.5215C30.3563 30.6493 30.482 30.7564 30.6252 30.8365C30.9123 30.9962 31.2521 31.0382 31.5706 30.9533C31.8891 30.8683 32.1604 30.6633 32.3253 30.383C33.4224 28.52 34 26.4067 34 24.2554C34 22.1042 33.4224 19.9908 32.3254 18.1278C31.2283 16.2648 29.6503 14.7177 27.75 13.642C25.8498 12.5664 23.6942 12.0001 21.5 12ZM25.0501 19.0591L23.1125 20.9464C22.611 20.704 22.0592 20.5781 21.5 20.5787C20.7583 20.5787 20.0333 20.7944 19.4166 21.1984C18.7999 21.6023 18.3192 22.1766 18.0354 22.8484C17.7515 23.5202 17.6773 24.2594 17.822 24.9726C17.9667 25.6858 18.3238 26.3409 18.8483 26.8551C19.3727 27.3693 20.0409 27.7194 20.7684 27.8613C21.4958 28.0032 22.2499 27.9304 22.9351 27.6521C23.6203 27.3738 24.206 26.9026 24.6181 26.2979C25.0302 25.6933 25.2501 24.9825 25.2501 24.2553C25.2492 23.7112 25.1209 23.1745 24.8751 22.6867L26.8126 20.7993C26.9298 20.6854 27.0228 20.5499 27.0863 20.4005C27.1497 20.2512 27.1824 20.091 27.1824 19.9292C27.1824 19.7674 27.1497 19.6072 27.0863 19.4579C27.0228 19.3086 26.9298 19.173 26.8126 19.0591C26.5784 18.8308 26.2616 18.7027 25.9314 18.7027C25.6011 18.7027 25.2843 18.8308 25.0501 19.0591ZM21.5 25.4809C21.1685 25.4809 20.8505 25.3518 20.6161 25.1219C20.3817 24.8921 20.25 24.5804 20.25 24.2553C20.25 23.9303 20.3817 23.6186 20.6161 23.3888C20.8505 23.1589 21.1685 23.0298 21.5 23.0298C21.8262 23.0279 22.1402 23.151 22.375 23.373C22.4946 23.4879 22.5895 23.6252 22.6539 23.7768C22.7183 23.9284 22.751 24.0911 22.75 24.2553C22.75 24.5804 22.6183 24.8921 22.3839 25.1219C22.1495 25.3518 21.8315 25.4809 21.5 25.4809Z" fill="white"/>
</svg>
