<svg width="49" height="50" viewBox="0 0 49 50" fill="none" xmlns="http://www.w3.org/2000/svg">
<path d="M44.1 15.7895H30.3506L33.1019 6.92895C33.5968 5.32895 33.3469 3.55526 32.4282 2.18684C31.5094 0.818421 30.0198 0 28.4494 0H24.5C23.7723 0 23.0839 0.347368 22.6159 0.947368L11.1009 15.7895H4.9C2.19765 15.7895 0 18.15 0 21.0526V44.7368C0 47.6395 2.19765 50 4.9 50H37.5021C38.499 49.9964 39.4714 49.668 40.2908 49.0581C41.1101 48.4482 41.7379 47.5855 42.091 46.5842L48.8456 27.2395C48.9482 26.944 49.0005 26.6311 49 26.3158V21.0526C49 18.15 46.8023 15.7895 44.1 15.7895ZM4.9 21.0526H9.8V44.7368H4.9V21.0526ZM44.1 25.8395L37.5021 44.7368H14.7V19.3737L25.6466 5.26316H28.4543L24.6274 17.5868C24.5032 17.9824 24.4685 18.4041 24.5263 18.8169C24.5841 19.2297 24.7327 19.6218 24.9598 19.9606C25.1868 20.2995 25.4858 20.5753 25.8319 20.7652C26.1781 20.9551 26.5613 21.0536 26.95 21.0526H44.1V25.8395Z" fill="black"/>
</svg>
