<svg width="59" height="47" viewBox="0 0 59 47" fill="none" xmlns="http://www.w3.org/2000/svg">
<path d="M32.4572 11.8825V2.93394C32.4572 2.15581 32.768 1.40955 33.3214 0.859331C33.8747 0.309111 34.6252 0 35.4077 0C36.1818 0.00324089 36.9236 0.308814 37.4731 0.850843L58.1272 21.3884C58.4038 21.6612 58.6233 21.9857 58.7731 22.3432C58.9229 22.7007 59 23.0842 59 23.4715C59 23.8588 58.9229 24.2423 58.7731 24.5999C58.6233 24.9574 58.4038 25.2819 58.1272 25.5546L37.4731 46.0922C37.0589 46.4959 36.5342 46.7693 35.9646 46.8782C35.395 46.987 34.8058 46.9266 34.2706 46.7043C33.7354 46.482 33.2779 46.1078 32.9554 45.6285C32.6329 45.1491 32.4596 44.5859 32.4572 44.0091V34.9139H29.9492C25.2875 34.8448 20.6665 35.7852 16.407 37.6699C12.1474 39.5546 8.35138 42.3384 5.28229 45.8282C4.91243 46.3178 4.39776 46.68 3.81044 46.8642C3.22311 47.0483 2.59255 47.0451 2.00714 46.855C1.4114 46.6551 0.895462 46.2712 0.534542 45.7593C0.173626 45.2473 -0.0133972 44.6342 0.000747681 44.0091C0.000747681 17.2516 23.8415 12.6746 32.4572 11.8825ZM29.9492 28.9873C31.9226 28.9812 33.8943 29.1086 35.8503 29.3687C36.5488 29.4741 37.1862 29.8252 37.6464 30.3583C38.1066 30.8913 38.3592 31.5708 38.3583 32.2733V36.9383L51.872 23.4715L38.3583 10.0047V14.6697C38.3583 15.4478 38.0475 16.1941 37.4941 16.7443C36.9408 17.2945 36.1903 17.6036 35.4077 17.6036C32.7227 17.6036 11.4785 18.1904 6.87561 36.4689C13.5566 31.5708 21.6487 28.947 29.9492 28.9873Z" fill="black"/>
</svg>
